<svg width="24" height="24" fill="white" xmlns="http://www.w3.org/2000/svg" clip-rule="evenodd" fill-rule="evenodd">

 <g>
  <title>Layer 1</title>
  <metadata>Svg Vector Icons : http://www.onlinewebfonts.com/icon</metadata>
  <g stroke="null" id="svg_12">
   <g stroke="null" id="svg_10">
    <path stroke="null" id="svg_11" d="m12.06012,0c-6.66013,0 -12.06011,5.39998 -12.06011,12.06011c0,6.66013 5.39998,12.06011 12.06011,12.06011c6.66013,0 12.06011,-5.39998 12.06011,-12.06011c0,-6.66013 -5.39998,-12.06011 -12.06011,-12.06011zm7.75293,19.81304c-1.00665,1.00665 -2.18066,1.79917 -3.48513,2.35049c-1.35122,0.57101 -2.78613,0.86144 -4.2678,0.86144c-1.48167,0 -2.91658,-0.29043 -4.2678,-0.86144c-1.30446,-0.55378 -2.47848,-1.34384 -3.48513,-2.35049s-1.79671,-2.18066 -2.35049,-3.48513c-0.57101,-1.35122 -0.86144,-2.78613 -0.86144,-4.2678c0,-1.48167 0.29043,-2.91658 0.86144,-4.2678c0.55132,-1.30446 1.34384,-2.47848 2.35049,-3.48513s2.18066,-1.79671 3.48513,-2.35049c1.35122,-0.57101 2.78613,-0.86144 4.2678,-0.86144c1.48167,0 2.91658,0.29043 4.2678,0.86144c1.30446,0.55132 2.47848,1.34384 3.48513,2.35049c1.00665,1.00665 1.79671,2.18066 2.35049,3.48513c0.57101,1.35122 0.86144,2.78613 0.86144,4.2678c0,1.48167 -0.29043,2.91658 -0.86144,4.2678c-0.55378,1.30446 -1.34384,2.47848 -2.35049,3.48513z"/>
   </g>
  </g>
  <g stroke="null" id="svg_17">
   <path stroke="null" id="svg_16" color="#000" d="m6.22095,4.47431c-0.69455,0.44856 -2.06295,2.15843 -2.07593,2.60685l0,0.74225c0,0.94087 0.80857,1.76782 1.5427,1.76782c0.88151,0 1.61597,-0.79462 1.61603,-1.73776c0,0.94313 0.70928,1.73776 1.59085,1.73776c0.88164,0 1.56814,-0.79462 1.56814,-1.73776c0,0.94313 0.75419,1.73776 1.63576,1.73776l0.01596,0c0.88164,0 1.63582,-0.79462 1.63582,-1.73776c0,0.94313 0.68657,1.73776 1.56808,1.73776c0.88157,0 1.59085,-0.79462 1.59085,-1.73776c0,0.94313 0.73459,1.73776 1.61603,1.73776c0.73413,0 1.5427,-0.82681 1.5427,-1.76782l0,-0.74225c-0.01298,-0.44849 -1.38138,-2.15843 -2.0758,-2.60685c-2.15873,-0.08244 -3.65529,-0.0967 -5.88573,-0.09635c-2.23037,0.00021 -5.27113,0.03811 -5.8856,0.09635l0.00013,0zm4.23064,4.6738a1.81863,1.97809 0 0 1 -0.31019,0.43444c-0.33277,0.3539 -0.7889,0.57328 -1.29176,0.57328a1.84828,2.01035 0 0 1 -1.29449,-0.57356c-0.12057,-0.12846 -0.2122,-0.26582 -0.29611,-0.42576l-0.00039,0.00028c-0.08384,0.16022 -0.20065,0.29751 -0.32148,0.42611a1.84945,2.01162 0 0 1 -1.29449,0.57313c-0.06061,0 -0.12369,-0.01821 -0.17469,-0.03727c-0.07086,0.80267 -0.10078,1.56977 -0.11136,2.12907l-0.00013,0.00318c-0.0013,0.28403 -0.0026,0.51759 -0.00389,0.84206c0.01363,1.68411 -0.15334,5.45847 0.68267,6.38587c1.29552,0.32856 3.67943,0.4782 6.07107,0.47912l0.00039,0c2.39157,-0.00092 4.77548,-0.15055 6.071,-0.47912c0.83602,-0.92746 0.66905,-4.70182 0.68267,-6.38594c-0.00143,-0.3244 -0.0026,-0.55796 -0.00389,-0.84206l-0.00019,-0.00318c-0.01051,-0.55944 -0.04043,-1.32647 -0.11129,-2.12914c-0.05101,0.01906 -0.11402,0.03727 -0.17469,0.03727a1.84945,2.01162 0 0 1 -1.29449,-0.57313c-0.12083,-0.1286 -0.23764,-0.26582 -0.32154,-0.42611l-0.00039,-0.00028c-0.08397,0.15994 -0.17554,0.29737 -0.29611,0.42576a1.84815,2.01021 0 0 1 -1.29442,0.57349c-0.50279,0 -0.95899,-0.21951 -1.29176,-0.57335a1.81863,1.97809 0 0 1 -0.31019,-0.43444a1.81636,1.97562 0 0 1 -0.30733,0.43444a1.8488,2.01091 0 0 1 -1.29462,0.57342c-0.01752,0 -0.03504,-0.00085 -0.05256,-0.00141l-0.00045,0c-0.01752,0.00056 -0.03504,0.00141 -0.05276,0.00141a1.8488,2.01091 0 0 1 -1.29462,-0.57335a1.81649,1.97576 0 0 1 -0.30733,-0.43444l-0.00019,0.00021zm-1.3294,1.86975l-0.00013,0.00071l0.00097,0c0.52648,0.0012 0.99416,0 1.57366,0.6879c0.45607,-0.05202 0.93264,-0.07799 1.40961,-0.07722l0.00039,0c0.47696,-0.00071 0.95354,0.0252 1.40967,0.07722c0.57949,-0.68797 1.04718,-0.68677 1.57366,-0.6879l0.00091,0l-0.00013,-0.00071c0.24873,0 1.24374,0 1.93706,2.11799l0.74471,2.90555c0.55185,2.16154 -0.1767,2.2144 -1.08547,2.21631c-1.3477,-0.05456 -2.0939,-1.1191 -2.0939,-2.18349c-0.74601,0.13298 -1.61629,0.19947 -2.48657,0.19954l-0.00039,0c-0.87035,0 -1.74063,-0.06656 -2.48657,-0.19954c0,1.06439 -0.74627,2.12893 -2.0939,2.18349c-0.90876,-0.00191 -1.63725,-0.0547 -1.0854,-2.21631l0.74491,-2.90548c0.69332,-2.11799 1.68832,-2.11799 1.93706,-2.11799l-0.00013,-0.00007zm2.98411,1.66449l0,0.00042c-0.0013,0.00141 -1.41876,1.41731 -1.67359,1.92092l0.92823,-0.04044l0,0.88045c0,0.04122 0.37249,0.02442 0.74536,0.00565l0.00039,0c0.37275,0.01878 0.7453,0.03557 0.7453,-0.00565l0,-0.88045l0.92823,0.04044c-0.2549,-0.50361 -1.67359,-1.92092 -1.67359,-1.92092l0,-0.00042l-0.00019,0.00014l-0.00013,-0.00014z"/>
  </g>
 </g>
</svg>